<svg width="168" height="50" viewBox="0 0 168 50" fill="none" xmlns="http://www.w3.org/2000/svg">
<path d="M162.517 37.3327V0.000183105H168V37.3327H162.517Z" fill="white"/>
<path fill-rule="evenodd" clip-rule="evenodd" d="M139.93 36.1951C141.692 37.2835 143.649 37.8277 145.799 37.8277C147.354 37.8277 148.792 37.5427 150.114 36.9725C150.13 36.9656 150.146 36.9587 150.162 36.9518C150.946 35.1724 151.91 31.9523 152.678 29.1533C152.641 29.2205 152.602 29.2873 152.563 29.3536C151.941 30.442 151.099 31.3102 150.036 31.9581C148.974 32.6059 147.782 32.9299 146.46 32.9299C145.139 32.9299 143.947 32.6059 142.884 31.9581C141.822 31.3102 140.966 30.442 140.319 29.3536C139.697 28.2393 139.386 27.0213 139.386 25.6997C139.386 24.3521 139.697 23.1341 140.319 22.0457C140.966 20.9573 141.822 20.0891 142.884 19.4413C143.972 18.7675 145.165 18.4306 146.46 18.4306C147.782 18.4306 148.974 18.7675 150.036 19.4413C151.099 20.0891 151.941 20.9573 152.563 22.0457C153.211 23.1341 153.535 24.3521 153.535 25.6997C153.535 25.7719 153.534 25.8438 153.532 25.9153C153.533 25.9116 153.534 25.9079 153.535 25.9043L153.593 37.3613H158.394V14.0855C158.172 14.0855 157.937 14.0786 157.693 14.0715C156.519 14.0373 155.157 13.9975 154.321 14.6945C153.842 15.094 153.535 15.7356 153.535 16.7591C152.576 15.7484 151.436 14.971 150.114 14.4268C148.792 13.8567 147.354 13.5716 145.799 13.5716C143.649 13.5716 141.692 14.1158 139.93 15.2042C138.168 16.2926 136.755 17.7568 135.693 19.5968C134.656 21.4367 134.138 23.471 134.138 25.6997C134.138 27.9283 134.656 29.9626 135.693 31.8026C136.755 33.6166 138.168 35.0808 139.93 36.1951Z" fill="white"/>
<path d="M124.685 37.2771V18.4206H118.764V13.946H122.329H124.802V6.2375H130.057V13.946C130.057 13.946 131.647 13.946 132.666 13.946C135.696 13.946 135.274 18.4206 135.274 18.4206H130.174V37.2771H124.685Z" fill="white"/>
<path d="M111.877 37.3332V14.0004H117.36V37.3332H111.877Z" fill="white"/>
<path d="M75.3428 37.3329V14.0001H78.0844H80.8259V37.3329H75.3428Z" fill="white"/>
<path fill-rule="evenodd" clip-rule="evenodd" d="M52.7938 36.166C54.5567 37.2549 56.514 37.7993 58.6657 37.7993C60.2071 37.7993 61.6339 37.5193 62.9462 36.9592C63.7364 35.2053 64.7199 32.0024 65.5022 29.2012C65.4792 29.2416 65.4559 29.2817 65.4321 29.3217C64.8099 30.4106 63.9673 31.2791 62.9044 31.9272C61.8415 32.5754 60.649 32.8994 59.3268 32.8994C58.0046 32.8994 56.8121 32.5754 55.7492 31.9272C54.6863 31.2791 53.8308 30.4106 53.1827 29.3217C52.5605 28.207 52.2494 26.9885 52.2494 25.6663C52.2494 24.3182 52.5605 23.0997 53.1827 22.0108C53.8308 20.9219 54.6863 20.0534 55.7492 19.4053C56.838 18.7312 58.0306 18.3942 59.3268 18.3942C60.649 18.3942 61.8415 18.7312 62.9044 19.4053C63.9673 20.0534 64.8099 20.9219 65.4321 22.0108C66.0802 23.0997 66.4042 24.3182 66.4042 25.6663C66.4042 25.8301 66.3994 25.992 66.3899 26.152L66.3899 34.6637C66.3947 34.659 66.3995 34.6542 66.4042 34.6494V37.3327H71.2651V0.000183105H68.5236H65.782V16.0998C64.8488 15.2961 63.7729 14.6739 62.5544 14.2332C61.3619 13.7665 60.0657 13.5332 58.6657 13.5332C56.514 13.5332 54.5567 14.0776 52.7938 15.1665C51.0309 16.2554 49.618 17.7202 48.5551 19.5609C47.5181 21.4016 46.9996 23.4367 46.9996 25.6663C46.9996 27.8959 47.5181 29.931 48.5551 31.7717C49.618 33.5865 51.0309 35.0513 52.7938 36.166Z" fill="white"/>
<path fill-rule="evenodd" clip-rule="evenodd" d="M89.7127 48.8047C91.2682 49.3491 92.9533 49.6214 94.768 49.6214C97.0494 49.6214 99.1881 49.1417 101.184 48.1825C103.181 47.2233 104.775 45.8363 105.967 44.0215C107.186 42.2067 107.795 40.029 107.795 37.4883V13.9999H102.934V16.7221C101.975 15.711 100.834 14.9332 99.5122 14.3888C98.19 13.8185 96.7512 13.5333 95.1958 13.5333C93.044 13.5333 91.0867 14.0777 89.3238 15.1666C87.5609 16.2554 86.1481 17.7202 85.0851 19.5609C84.0482 21.4016 83.5297 23.4368 83.5297 25.6663C83.5297 27.8959 84.0482 29.9311 85.0851 31.7718C86.1481 33.5865 87.5609 35.0513 89.3238 36.1661C91.0867 37.255 93.044 37.7994 95.1958 37.7994C96.6942 37.7994 98.0931 37.5257 99.3925 36.9783C100.243 35.1295 101.322 31.8201 102.14 29.0037C102.084 29.1109 102.024 29.217 101.962 29.3218C101.34 30.4107 100.497 31.2792 99.4344 31.9273C98.3715 32.5754 97.179 32.8995 95.8568 32.8995C94.5347 32.8995 93.3421 32.5754 92.2792 31.9273C91.2163 31.2792 90.3608 30.4107 89.7127 29.3218C89.0905 28.207 88.7794 26.9885 88.7794 25.6663C88.7794 24.3182 89.0905 23.0997 89.7127 22.0109C90.3608 20.922 91.2163 20.0535 92.2792 19.4054C93.3681 18.7313 94.5606 18.3943 95.8568 18.3943C97.179 18.3943 98.3715 18.7313 99.4344 19.4054C100.497 20.0535 101.34 20.922 101.962 22.0109C102.61 23.0997 102.934 24.3182 102.934 25.6663C102.934 25.8383 102.929 26.0081 102.918 26.1758C102.933 26.1192 102.947 26.0634 102.961 26.0085L102.86 34.6846C102.872 34.6729 102.884 34.6612 102.895 34.6495V36.8661C102.895 39.1994 102.157 41.0919 100.679 42.5437C99.227 44.0215 97.2438 44.7603 94.7291 44.7603C93.044 44.7603 91.5404 44.3974 90.2182 43.6715C88.8961 42.9715 87.8332 42.0641 87.0295 40.9493L85.6296 46.6659C86.7962 47.5733 88.1572 48.2862 89.7127 48.8047Z" fill="white"/>
<path d="M116.792 8.8983C117.091 8.67225 117.091 8.22327 116.792 7.99718L112.78 4.96136C112.408 4.67975 111.874 4.94521 111.874 5.4119L111.874 11.4827C111.874 11.9494 112.408 12.2148 112.78 11.9333L116.792 8.8983Z" fill="white"/>
<path d="M80.2153 7.99597C80.5141 8.22202 80.5141 8.67101 80.2153 8.89709L76.2034 11.9329C75.8312 12.2145 75.2975 11.9491 75.2975 11.4824L75.2975 5.41155C75.2975 4.9449 75.8312 4.67943 76.2033 4.96097L80.2153 7.99597Z" fill="white"/>
<path fill-rule="evenodd" clip-rule="evenodd" d="M5.80862 36.1957C7.57077 37.2841 9.52727 37.8283 11.6781 37.8283C13.233 37.8283 14.6712 37.5433 15.9928 36.9731C16.0093 36.966 16.0258 36.9589 16.0423 36.9517C16.8266 35.171 17.7911 31.9488 18.5591 29.1491C18.5212 29.218 18.4821 29.2864 18.4417 29.3542C17.8197 30.4427 16.9775 31.3108 15.9151 31.9587C14.8526 32.6065 13.6606 32.9305 12.3389 32.9305C11.0173 32.9305 9.82528 32.6065 8.76281 31.9587C7.70034 31.3108 6.84518 30.4427 6.19733 29.3542C5.57539 28.2399 5.26442 27.0219 5.26442 25.7003C5.26442 24.3527 5.57539 23.1347 6.19733 22.0463C6.84518 20.9579 7.70034 20.0897 8.76281 19.4419C9.8512 18.7681 11.0432 18.4312 12.3389 18.4312C13.6606 18.4312 14.8526 18.7681 15.9151 19.4419C16.9775 20.0897 17.8197 20.9579 18.4417 22.0463C19.0895 23.1347 19.4135 24.3527 19.4135 25.7003C19.4135 25.7745 19.4125 25.8482 19.4105 25.9216C19.4119 25.9161 19.4133 25.9105 19.4147 25.905L19.473 37.3619H24.2723V14.0861C24.0511 14.0861 23.8155 14.0792 23.5717 14.0721C22.3977 14.0379 21.0361 13.9981 20.1997 14.6951C19.7203 15.0946 19.4135 15.7362 19.4135 16.7597C18.4546 15.749 17.3144 14.9716 15.9928 14.4274C14.6712 13.8573 13.233 13.5722 11.6781 13.5722C9.52727 13.5722 7.57077 14.1164 5.80862 15.2048C4.04647 16.2932 2.63416 17.7574 1.57168 19.5974C0.535125 21.4373 0.0168457 23.4716 0.0168457 25.7003C0.0168457 27.9289 0.535125 29.9632 1.57168 31.8032C2.63416 33.6172 4.04647 35.0814 5.80862 36.1957Z" fill="white"/>
<path d="M30.9165 37.3835V18.5269H24.9955V14.0524H28.5612H31.0333V6.34387H36.289V14.0524C36.289 14.0524 37.8787 14.0524 38.8974 14.0524C41.9275 14.0524 41.5057 18.5269 41.5057 18.5269H36.4058V37.3835H30.9165Z" fill="white"/>
</svg>
